<svg
   xmlns:dc="http://purl.org/dc/elements/1.1/"
   xmlns:cc="http://creativecommons.org/ns#"
   xmlns:rdf="http://www.w3.org/1999/02/22-rdf-syntax-ns#"
   xmlns:svg="http://www.w3.org/2000/svg"
   xmlns="http://www.w3.org/2000/svg"
   xmlns:xlink="http://www.w3.org/1999/xlink"
   xmlns:sodipodi="http://sodipodi.sourceforge.net/DTD/sodipodi-0.dtd"
   xmlns:inkscape="http://www.inkscape.org/namespaces/inkscape"
   width="31.134163mm"
   height="14.209242mm"
   viewBox="0 0 110.3179 50.347706"
   id="svg2"
   version="1.1"
   inkscape:version="0.91 r13725"
   sodipodi:docname="Teller.svg">
  <title
     id="title4136">plate - coloured</title>
  <defs
     id="defs4">
    <linearGradient
       inkscape:collect="always"
       id="linearGradient5175">
      <stop
         style="stop-color:#b4cfff;stop-opacity:1"
         offset="0"
         id="stop5177" />
      <stop
         id="stop5183"
         offset="0.24380705"
         style="stop-color:#c1dbff;stop-opacity:1" />
      <stop
         style="stop-color:#bedaff;stop-opacity:1"
         offset="0.40159991"
         id="stop5185" />
      <stop
         style="stop-color:#4d72ac;stop-opacity:1"
         offset="1"
         id="stop5179" />
    </linearGradient>
    <linearGradient
       inkscape:collect="always"
       id="linearGradient5159">
      <stop
         style="stop-color:#cfe2ff;stop-opacity:1;"
         offset="0"
         id="stop5161" />
      <stop
         id="stop5169"
         offset="0.03996425"
         style="stop-color:#eaf2ff;stop-opacity:1" />
      <stop
         style="stop-color:#d5e1f4;stop-opacity:1"
         offset="0.07645489"
         id="stop5171" />
      <stop
         style="stop-color:#8fbcff;stop-opacity:1"
         offset="1"
         id="stop5163" />
    </linearGradient>
    <linearGradient
       inkscape:collect="always"
       id="linearGradient5143">
      <stop
         style="stop-color:#81a1d3;stop-opacity:1"
         offset="0"
         id="stop5145" />
      <stop
         style="stop-color:#cfe2ff;stop-opacity:0.718894"
         offset="1"
         id="stop5147" />
    </linearGradient>
    <linearGradient
       inkscape:collect="always"
       id="linearGradient4262">
      <stop
         style="stop-color:#95beff;stop-opacity:1"
         offset="0"
         id="stop4264" />
      <stop
         id="stop4272"
         offset="0.733298"
         style="stop-color:#bbd5ff;stop-opacity:1;" />
      <stop
         id="stop4270"
         offset="0.87898558"
         style="stop-color:#c6dcff;stop-opacity:1;" />
      <stop
         style="stop-color:#d7e7ff;stop-opacity:1"
         offset="1"
         id="stop4266" />
    </linearGradient>
    <pattern
       inkscape:collect="always"
       xlink:href="#Polkadots-large"
       id="pattern6056"
       patternTransform="matrix(0.45405845,0,0,0.5954798,116.64466,1009.5528)" />
    <pattern
       inkscape:collect="always"
       xlink:href="#Polkadots-large"
       id="pattern5964"
       patternTransform="matrix(0.70154582,0,0,0.7722565,152,1036)" />
    <pattern
       inkscape:collect="always"
       xlink:href="#Polkadots-large"
       id="pattern5872"
       patternTransform="matrix(0.77928932,0,0,0.73180195,105,1009)" />
    <pattern
       inkscape:stockid="Polka dots, large"
       id="Polkadots-large"
       patternTransform="translate(0,0) scale(10,10)"
       height="10"
       width="10"
       patternUnits="userSpaceOnUse"
       inkscape:collect="always">
      <circle
         id="circle5562"
         r="0.45"
         cy="0.810"
         cx="2.567"
         style="fill:black;stroke:none" />
      <circle
         id="circle5564"
         r="0.45"
         cy="2.33"
         cx="3.048"
         style="fill:black;stroke:none" />
      <circle
         id="circle5566"
         r="0.45"
         cy="2.415"
         cx="4.418"
         style="fill:black;stroke:none" />
      <circle
         id="circle5568"
         r="0.45"
         cy="3.029"
         cx="1.844"
         style="fill:black;stroke:none" />
      <circle
         id="circle5570"
         r="0.45"
         cy="1.363"
         cx="6.08"
         style="fill:black;stroke:none" />
      <circle
         id="circle5572"
         r="0.45"
         cy="4.413"
         cx="5.819"
         style="fill:black;stroke:none" />
      <circle
         id="circle5574"
         r="0.45"
         cy="4.048"
         cx="4.305"
         style="fill:black;stroke:none" />
      <circle
         id="circle5576"
         r="0.45"
         cy="3.045"
         cx="5.541"
         style="fill:black;stroke:none" />
      <circle
         id="circle5578"
         r="0.45"
         cy="5.527"
         cx="4.785"
         style="fill:black;stroke:none" />
      <circle
         id="circle5580"
         r="0.45"
         cy="5.184"
         cx="2.667"
         style="fill:black;stroke:none" />
      <circle
         id="circle5582"
         r="0.45"
         cy="1.448"
         cx="7.965"
         style="fill:black;stroke:none" />
      <circle
         id="circle5584"
         r="0.45"
         cy="5.049"
         cx="7.047"
         style="fill:black;stroke:none" />
      <circle
         id="circle5586"
         r="0.45"
         cy="0.895"
         cx="4.340"
         style="fill:black;stroke:none" />
      <circle
         id="circle5588"
         r="0.45"
         cy="0.340"
         cx="7.125"
         style="fill:black;stroke:none" />
      <circle
         id="circle5590"
         r="0.45"
         cy="1.049"
         cx="9.553"
         style="fill:black;stroke:none" />
      <circle
         id="circle5592"
         r="0.45"
         cy="2.689"
         cx="7.006"
         style="fill:black;stroke:none" />
      <circle
         id="circle5594"
         r="0.45"
         cy="2.689"
         cx="8.909"
         style="fill:black;stroke:none" />
      <circle
         id="circle5596"
         r="0.45"
         cy="4.407"
         cx="9.315"
         style="fill:black;stroke:none" />
      <circle
         id="circle5598"
         r="0.45"
         cy="3.870"
         cx="7.820"
         style="fill:black;stroke:none" />
      <circle
         id="circle5600"
         r="0.45"
         cy="5.948"
         cx="8.270"
         style="fill:black;stroke:none" />
      <circle
         id="circle5602"
         r="0.45"
         cy="7.428"
         cx="7.973"
         style="fill:black;stroke:none" />
      <circle
         id="circle5604"
         r="0.45"
         cy="8.072"
         cx="9.342"
         style="fill:black;stroke:none" />
      <circle
         id="circle5606"
         r="0.45"
         cy="9.315"
         cx="8.206"
         style="fill:black;stroke:none" />
      <circle
         id="circle5608"
         r="0.45"
         cy="9.475"
         cx="9.682"
         style="fill:black;stroke:none" />
      <circle
         id="circle5610"
         r="0.45"
         cy="6.186"
         cx="9.688"
         style="fill:black;stroke:none" />
      <circle
         id="circle5612"
         r="0.45"
         cy="6.296"
         cx="3.379"
         style="fill:black;stroke:none" />
      <circle
         id="circle5614"
         r="0.45"
         cy="8.204"
         cx="2.871"
         style="fill:black;stroke:none" />
      <circle
         id="circle5616"
         r="0.45"
         cy="8.719"
         cx="4.59"
         style="fill:black;stroke:none" />
      <circle
         id="circle5618"
         r="0.45"
         cy="9.671"
         cx="3.181"
         style="fill:black;stroke:none" />
      <circle
         id="circle5620"
         r="0.45"
         cy="7.315"
         cx="5.734"
         style="fill:black;stroke:none" />
      <circle
         id="circle5622"
         r="0.45"
         cy="6.513"
         cx="6.707"
         style="fill:black;stroke:none" />
      <circle
         id="circle5624"
         r="0.45"
         cy="9.670"
         cx="5.730"
         style="fill:black;stroke:none" />
      <circle
         id="circle5626"
         r="0.45"
         cy="8.373"
         cx="6.535"
         style="fill:black;stroke:none" />
      <circle
         id="circle5628"
         r="0.45"
         cy="7.154"
         cx="4.37"
         style="fill:black;stroke:none" />
      <circle
         id="circle5630"
         r="0.45"
         cy="7.25"
         cx="0.622"
         style="fill:black;stroke:none" />
      <circle
         id="circle5632"
         r="0.45"
         cy="5.679"
         cx="0.831"
         style="fill:black;stroke:none" />
      <circle
         id="circle5634"
         r="0.45"
         cy="8.519"
         cx="1.257"
         style="fill:black;stroke:none" />
      <circle
         id="circle5636"
         r="0.45"
         cy="6.877"
         cx="1.989"
         style="fill:black;stroke:none" />
      <circle
         id="circle5638"
         r="0.45"
         cy="3.181"
         cx="0.374"
         style="fill:black;stroke:none" />
      <circle
         id="circle5640"
         r="0.45"
         cy="1.664"
         cx="1.166"
         style="fill:black;stroke:none" />
      <circle
         id="circle5642"
         r="0.45"
         cy="0.093"
         cx="1.151"
         style="fill:black;stroke:none" />
      <circle
         id="circle5644"
         r="0.45"
         cy="10.093"
         cx="1.151"
         style="fill:black;stroke:none" />
      <circle
         id="circle5646"
         r="0.45"
         cy="4.451"
         cx="1.302"
         style="fill:black;stroke:none" />
      <circle
         id="circle5648"
         r="0.45"
         cy="3.763"
         cx="3.047"
         style="fill:black;stroke:none" />
    </pattern>
    <radialGradient
       inkscape:collect="always"
       xlink:href="#linearGradient4262"
       id="radialGradient4268"
       cx="53.292332"
       cy="993.79553"
       fx="53.292332"
       fy="993.79553"
       r="50.907213"
       gradientTransform="matrix(0.99479113,-0.00173626,4.7841577e-4,0.27410798,-0.19785482,717.26752)"
       gradientUnits="userSpaceOnUse" />
    <linearGradient
       inkscape:collect="always"
       xlink:href="#linearGradient5143"
       id="linearGradient5149"
       x1="20.888023"
       y1="1032.6432"
       x2="26.356619"
       y2="1024.7766"
       gradientUnits="userSpaceOnUse"
       gradientTransform="translate(1.3258252,-35.532116)" />
    <linearGradient
       inkscape:collect="always"
       xlink:href="#linearGradient5159"
       id="linearGradient5167"
       x1="34.609077"
       y1="1003.5057"
       x2="104.13006"
       y2="1005.6271"
       gradientUnits="userSpaceOnUse"
       spreadMethod="reflect" />
    <radialGradient
       inkscape:collect="always"
       xlink:href="#linearGradient5175"
       id="radialGradient5181"
       cx="35.646683"
       cy="1029.5129"
       fx="35.646683"
       fy="1029.5129"
       r="34.729554"
       gradientTransform="matrix(0.91610104,-0.00601378,5.2522758e-4,0.08000972,2.4452646,930.35689)"
       gradientUnits="userSpaceOnUse" />
  </defs>
  <sodipodi:namedview
     id="base"
     pagecolor="#ffffff"
     bordercolor="#666666"
     borderopacity="1.0"
     inkscape:pageopacity="0.0"
     inkscape:pageshadow="2"
     inkscape:zoom="5.6568542"
     inkscape:cx="44.705823"
     inkscape:cy="13.447061"
     inkscape:document-units="mm"
     inkscape:current-layer="layer1"
     showgrid="false"
     inkscape:window-width="1573"
     inkscape:window-height="1039"
     inkscape:window-x="364"
     inkscape:window-y="172"
     inkscape:window-maximized="0"
     inkscape:snap-global="false"
     fit-margin-top="1"
     fit-margin-right="1"
     fit-margin-bottom="1"
     fit-margin-left="1" />
  <metadata
     id="metadata7">
    <rdf:RDF>
      <cc:Work
         rdf:about="">
        <dc:format>image/svg+xml</dc:format>
        <dc:type
           rdf:resource="http://purl.org/dc/dcmitype/StillImage" />
        <dc:title>plate - coloured</dc:title>
        <cc:license
           rdf:resource="http://creativecommons.org/publicdomain/zero/1.0/" />
        <dc:subject>
          <rdf:Bag>
            <rdf:li>plates</rdf:li>
            <rdf:li>dishes</rdf:li>
            <rdf:li>dish</rdf:li>
            <rdf:li>plate</rdf:li>
            <rdf:li>food</rdf:li>
            <rdf:li>Teller</rdf:li>
            <rdf:li>Geschirr</rdf:li>
            <rdf:li>Essen</rdf:li>
            <rdf:li>outline</rdf:li>
            <rdf:li>line art</rdf:li>
            <rdf:li></rdf:li>
          </rdf:Bag>
        </dc:subject>
        <dc:date>2015-02-15</dc:date>
        <dc:creator>
          <cc:Agent>
            <dc:title>Frank Tremmel</dc:title>
          </cc:Agent>
        </dc:creator>
        <dc:description>coloured line art plate</dc:description>
      </cc:Work>
      <cc:License
         rdf:about="http://creativecommons.org/publicdomain/zero/1.0/">
        <cc:permits
           rdf:resource="http://creativecommons.org/ns#Reproduction" />
        <cc:permits
           rdf:resource="http://creativecommons.org/ns#Distribution" />
        <cc:permits
           rdf:resource="http://creativecommons.org/ns#DerivativeWorks" />
      </cc:License>
    </rdf:RDF>
  </metadata>
  <g
     inkscape:label="Ebene 1"
     inkscape:groupmode="layer"
     id="layer1"
     transform="translate(1.8526767,-970.10264)">
    <path
       style="color:#000000;display:inline;overflow:visible;visibility:visible;opacity:1;fill:#bad5ff;fill-opacity:1;fill-rule:evenodd;stroke:#ff0000;stroke-width:0.35433072;stroke-linecap:butt;stroke-linejoin:bevel;stroke-miterlimit:4;stroke-dasharray:none;stroke-dashoffset:0;stroke-opacity:1;marker:none;enable-background:accumulate"
       d="m 2.4593799,986.64276 c 0.047,7.18323 4.93249,11.9473 16.1031201,15.62724 3.92032,2.8789 5.62782,4.5159 8.03516,6.9746 0.43978,1.9074 0.72151,3.8056 2.73437,4.1074 6.60412,1.7431 16.40129,2.9187 24.28516,2.9161 7.8838,0 18.05301,-1.152 23.8457,-2.9844 2.01286,-0.3018 2.48014,-2.45 2.91992,-4.3574 2.848095,-2.8173 4.148902,-4.3262 8.78711,-7.0586 9.76718,-3.05502 16.67457,-8.31639 14.94597,-14.56934 -0.47859,-7.25295 -22.92124,-13.23852 -50.87175,-13.22764 -27.9505,0.0109 -50.8317401,5.38881 -50.7847601,12.57204 z"
       id="path4193-0-6"
       inkscape:connector-curvature="0"
       sodipodi:nodetypes="ccccccccccc" />
    <path
       style="fill:url(#linearGradient5149);fill-opacity:1;fill-rule:evenodd;stroke:none;stroke-width:0.35433072;stroke-linecap:butt;stroke-linejoin:miter;stroke-miterlimit:4;stroke-dasharray:none;stroke-opacity:1"
       d="m 25.544427,985.16068 c 1.898507,0.454 1.575564,1.8462 2.919543,3.1284 2.021374,1.9284 4.988326,4.0564 8.017957,4.7466 0,0 -5.494169,0.8037 -8.5625,1.9375 -0.750769,0.2775 -1.793293,1.1374 -1.8125,1.9375 -0.0358,1.4915 2.25,2.4375 2.25,2.4375 0,0 -5.843262,-1.5981 -8.5625,-3.125 -1.344847,-0.7551 -5.130925,-3.415 -4.375,-6 1.101119,-3.7654 10.125,-5.0625 10.125,-5.0625 z"
       id="path4391-6"
       inkscape:connector-curvature="0"
       sodipodi:nodetypes="cscsscssc" />
    <path
       style="fill:url(#pattern5964);fill-opacity:1;fill-rule:evenodd;stroke:none;stroke-width:0.35433072;stroke-linecap:butt;stroke-linejoin:miter;stroke-miterlimit:4;stroke-dasharray:none;stroke-opacity:1;opacity:0.298"
       d="m 25.375,985.2372 c 1.898507,0.45392 1.575564,1.84615 2.919543,3.12834 2.021374,1.92843 4.988326,4.05644 8.017957,4.74666 0,0 -5.494169,0.80365 -8.5625,1.9375 -0.750769,0.27744 -1.793293,1.13734 -1.8125,1.9375 -0.0358,1.49145 2.25,2.4375 2.25,2.4375 0,0 -5.843262,-1.5981 -8.5625,-3.125 -1.344847,-0.75516 -5.130925,-3.41503 -4.375,-6 1.101119,-3.76539 10.125,-5.0625 10.125,-5.0625 z"
       id="path4391"
       inkscape:connector-curvature="0"
       sodipodi:nodetypes="cscsscssc" />
    <path
       style="fill:url(#radialGradient5181);fill-opacity:1;fill-rule:evenodd;stroke:#00ff00;stroke-width:0.35433072;stroke-linecap:butt;stroke-linejoin:miter;stroke-miterlimit:4;stroke-dasharray:none;stroke-opacity:1"
       d="m 18.306594,1002.0002 c 0.2407,0.4814 19.212005,5.0032 36.681165,5.1265 12.75377,0.09 32.83326,-3.7862 32.43852,-4.773 -3.19344,3.6305 -4.6729,4.5186 -6.8059,6.4524 l -1.325827,3.624 c -0.71455,1.4291 -13.254778,3.7189 -23.953248,3.9774 -5.616534,0.1358 -12.099197,-0.247 -17.415312,-1.1078 -6.289556,-1.0184 -10.946235,-2.5644 -10.603795,-2.6929 l -0.530327,-3.0052 c -0.87461,-0.9529 -1.276526,-1.8462 -3.093586,-3.2703 -3.046,-1.4165 -4.51163,-3.3478 -5.39169,-4.3311 z"
       id="path4372-0"
       inkscape:connector-curvature="0"
       sodipodi:nodetypes="cscccsscccc" />
    <path
       style="fill:url(#pattern5872);fill-opacity:1;fill-rule:evenodd;stroke:none;stroke-width:0.35433072;stroke-linecap:butt;stroke-linejoin:miter;stroke-miterlimit:4;stroke-dasharray:none;stroke-opacity:1;opacity:0.354"
       d="m 20.152543,1002.5112 c 0.240705,0.4814 17.355858,4.1193 34.825009,4.2426 12.753776,0.09 30.711938,-3.8746 32.438524,-4.773 -1.703843,2.1587 -1.77072,2.1224 -2.858315,3.0722 -9.302221,2.615 -16.093321,4.1678 -29.580209,4.2641 -11.103322,0.079 -20.965051,-0.855 -32.261747,-4.331 -0.836282,-0.5326 -2.301921,-1.2264 -2.563262,-2.4749 z"
       id="path4372"
       inkscape:connector-curvature="0"
       sodipodi:nodetypes="csccscc" />
    <path
       style="fill:url(#pattern6056);fill-opacity:1;fill-rule:evenodd;stroke:none;stroke-width:0.35433072;stroke-linecap:butt;stroke-linejoin:miter;stroke-miterlimit:4;stroke-dasharray:none;stroke-opacity:1;opacity:0.357"
       d="m 45.785164,1015.7694 c -0.136921,-1.6378 6.894736,-0.1701 10.16466,-2.5632 0.991721,-0.3967 4.058285,-0.07 8.536317,-0.6397 3.591934,-0.4573 7.479177,-1.4102 10.202013,-2.012 2.316372,-0.512 5.732903,-2.2682 6.181823,-2.8392 -0.331552,2.0079 -1.291148,3.0738 -1.939182,4.607 0,0 -2.002838,1.3637 -5.126959,2.1195 -3.475359,0.8408 -8.233343,1.0972 -10.959721,1.416 -5.363189,0.6272 -16.508353,0.022 -17.058951,-0.088 z"
       id="path4389"
       inkscape:connector-curvature="0"
       sodipodi:nodetypes="ccssccsscc" />
    <path
       style="color:#000000;display:inline;overflow:visible;visibility:visible;opacity:1;fill:url(#radialGradient4268);fill-opacity:1;fill-rule:evenodd;stroke:#0000ff;stroke-width:0.35433072;stroke-linecap:butt;stroke-linejoin:bevel;stroke-miterlimit:4;stroke-dasharray:none;stroke-dashoffset:0;stroke-opacity:1;marker:none;enable-background:accumulate"
       d="m 52.835643,974.21436 c -12.157924,0.005 -23.768066,1.03817 -32.474073,2.88458 -11.3086956,2.39839 -18.0210387,6.04694 -17.7937003,9.34411 0.402355,5.83552 5.8396918,7.82377 12.1477133,10.58094 7.23215,2.466 8.767819,2.64362 16.036246,3.65911 -8.69491,-2.45897 -16.135245,-6.04037 -15.974278,-9.08735 0.309466,-5.85796 17.113499,-9.42622 38.162599,-9.43412 21.04915,-0.01 38.491503,3.62897 38.510443,9.04107 0.01894,5.4121 -10.50561,8.22797 -23.892726,10.5664 26.936784,-2.69659 34.556923,-8.07274 36.470703,-15.12044 -1.34784,-4.8847 -13.398465,-8.89554 -25.951518,-10.83061 -10.783003,-1.66221 -22.122086,-1.58424 -25.241409,-1.60369 z"
       id="path4193-0-4"
       inkscape:connector-curvature="0"
       sodipodi:nodetypes="cscccsccccsc" />
    <path
       style="color:#000000;display:inline;overflow:visible;visibility:visible;opacity:1;fill:url(#linearGradient5167);fill-opacity:1;fill-rule:evenodd;stroke:#ffb900;stroke-width:0.35433072;stroke-linecap:butt;stroke-linejoin:bevel;stroke-miterlimit:4;stroke-dasharray:none;stroke-dashoffset:0;stroke-opacity:1;marker:none;enable-background:accumulate"
       d="m 53.486012,1006.5032 c -28.14768,0 -50.0633044,-6.4534 -50.696603,-18.2912 1.9802685,7.87678 23.138341,14.484 50.37767,14.6278 26.553773,0.1402 48.506451,-7.05486 51.048141,-15.36146 1.77935,11.9701 -22.581538,19.02066 -50.729208,19.02486 z"
       id="path4193-9-3-9"
       inkscape:connector-curvature="0"
       sodipodi:nodetypes="scscs" />
    <g
       id="g4253"
       transform="translate(0.29483854,-0.17677709)"
       style="fill:#3b5e8b;fill-opacity:1">
      <path
         style="color:#000000;font-style:normal;font-variant:normal;font-weight:normal;font-stretch:normal;font-size:medium;line-height:normal;font-family:sans-serif;text-indent:0;text-align:start;text-decoration:none;text-decoration-line:none;text-decoration-style:solid;text-decoration-color:#000000;letter-spacing:normal;word-spacing:normal;text-transform:none;direction:ltr;block-progression:tb;writing-mode:lr-tb;baseline-shift:baseline;text-anchor:start;white-space:normal;clip-rule:nonzero;display:inline;overflow:visible;visibility:visible;opacity:1;isolation:auto;mix-blend-mode:normal;color-interpolation:sRGB;color-interpolation-filters:linearRGB;solid-color:#000000;solid-opacity:1;fill:#3b5e8b;fill-opacity:1;fill-rule:evenodd;stroke:none;stroke-width:1.77165353;stroke-linecap:butt;stroke-linejoin:bevel;stroke-miterlimit:4;stroke-dasharray:none;stroke-dashoffset:0;stroke-opacity:1;marker:none;color-rendering:auto;image-rendering:auto;shape-rendering:auto;text-rendering:auto;enable-background:accumulate"
         d="m 101.85608,982.58955 c -6.025213,-4.08482 -15.325688,-6.0845 -22.077831,-7.2069 -8.873481,-1.47503 -17.912285,-1.79002 -26.901212,-1.72982 -13.947648,0.0934 -28.225868,0.61533 -41.540812,5.10367 -4.0054236,1.35019 -9.316937,3.4897 -9.8822131,8.25837 -0.61261916,5.16805 3.7187332,9.00392 7.8508885,11.6387 2.6295396,1.67663 4.2736076,2.46003 7.1668446,3.68603 2.612285,1.4341 3.899139,2.5367 5.902136,3.9094 1.790086,1.2268 2.976965,2.2472 3.507675,3.4675 0.275997,1.0222 0.139007,2.5333 0.778118,3.1477 2.383216,2.291 18.127973,4.0991 27.383076,4.0415 9.513471,-0.059 21.538063,-1.5197 24.700723,-3.8296 1.658946,-1.2116 1.068604,-1.6885 1.620399,-2.9554 0.262513,-1.0355 1.456237,-2.1099 2.851091,-3.4557 2.11659,-2.0422 3.240512,-2.6845 5.321121,-3.9918 5.62205,-1.833 13.829506,-5.2642 15.707046,-11.46863 0.43745,-1.44558 0.43812,-2.60054 0.30984,-3.4539 -0.31356,-2.08594 -1.61229,-4.42581 -2.69689,-5.16112 z m -18.843188,2.52889 c -11.741581,-2.71885 -20.153182,-3.33334 -29.836444,-3.75423 -8.638681,-0.37549 -27.398909,1.88982 -35.5135,5.24699 -5.092925,2.10705 -6.326812,8.698 6.190569,12.43483 -0.923962,0.1514 -10.550955,-3.15008 -12.132269,-3.81034 -3.4897887,-1.45713 -8.413283,-3.82908 -8.5082737,-7.85239 -0.098159,-4.1575 5.2356855,-6.36454 8.7117207,-7.3986 12.788657,-3.80441 27.10564,-5.30099 41.07029,-5.27401 13.552322,0.0262 27.96855,1.30616 40.896124,5.68957 3.467065,1.17559 8.405691,2.84149 8.730611,7.30709 0.0423,0.58095 -0.2088,1.57947 -0.45891,1.98211 -1.60259,2.57988 -5.789931,5.14603 -10.408536,6.8243 -4.493077,1.63267 -9.403772,2.40138 -12.070394,3.199 1.97155,-0.78563 5.985015,-2.16584 8.745627,-3.82972 2.130937,-1.28435 3.336758,-2.77345 3.3925,-4.0662 0.189286,-4.38984 -5.259767,-5.87652 -8.809115,-6.6984 z m 0.358487,12.31945 c -7.952387,2.76591 -18.144663,4.61621 -29.085265,4.52801 -15.481164,-0.1247 -26.830386,-1.757 -34.104112,-5.57646 -2.511002,-1.31853 -5.235826,-3.71174 -4.927528,-5.70232 0.287647,-1.85725 3.65549,-3.43319 5.541358,-3.96543 9.132316,-2.57738 20.857309,-4.29884 32.323445,-4.17609 10.18637,0.10906 23.969074,1.87564 32.535565,4.58741 2.469955,0.78188 4.597992,1.99449 4.877094,4.10974 0.34272,2.59738 -4.055336,5.1151 -7.160557,6.19514 z m 20.177531,-7.52724 c -0.0217,1.46013 -2.035,4.76132 -4.586301,6.49215 -3.904578,2.64892 -9.070824,4.383 -12.506951,5.2276 -10.320093,2.5365 -21.268876,4.3559 -31.893517,4.3787 -5.178828,0.011 -15.984092,-0.7793 -21.083502,-1.5687 -11.267689,-1.7443 -16.089447,-3.2398 -23.536717,-7.14411 -1.6855734,-0.88368 -5.0098273,-3.94443 -5.6175546,-4.91044 4.7068635,3.49893 12.6091996,6.57995 20.4134766,8.15245 7.932215,1.5983 16.836502,3.284 29.713579,3.236 10.58392,-0.039 17.284555,-0.7946 32.734108,-4.81343 2.89123,-0.75209 6.952184,-1.98177 10.37818,-3.82561 2.441689,-1.3141 4.624359,-3.3459 5.985199,-5.22461 z m -18.571303,13.67465 c -0.589107,0.557 -1.335113,1.2438 -2.916064,2.4188 -1.498137,1.1135 -2.344761,1.9407 -2.94965,3.2865 -0.791893,1.762 -0.656006,2.8718 -1.572184,3.1664 -5.797814,1.6276 -16.841994,3.0612 -23.215318,3.0774 -7.869535,0.02 -18.059903,-1.025 -25.488371,-3.0398 -2.40476,-0.3692 -0.985294,-2.7791 -1.99927,-3.9003 -0.619526,-0.6851 -0.890366,-1.4158 -3.025525,-2.8589 -1.706042,-1.1531 -2.024079,-1.6335 -3.437941,-2.417 6.188612,1.7453 10.814898,2.5526 16.816943,3.1701 11.204873,1.1528 22.507603,1.394 33.683555,-0.2592 5.546743,-0.8205 8.640405,-1.3856 14.103825,-2.644 z m -55.237592,6.2839 c 0.08696,1.127 5.462648,2.1926 7.800729,2.5939 4.18599,0.7185 11.278897,1.1936 15.551427,1.1241 3.79201,-0.062 7.590361,-0.2553 11.345806,-0.8625 3.32439,-0.5375 8.947563,-1.3333 11.598409,-2.6945 -1.927087,0.2619 -7.386173,1.2213 -10.007362,1.6263 -5.21788,0.8064 -13.77637,1.0754 -19.082553,0.9196 -5.814105,-0.1707 -11.394574,-0.98 -17.206456,-2.7069 z"
         id="path4193"
         inkscape:connector-curvature="0"
         sodipodi:nodetypes="sssssscscssscscsssssscsssssssscsssssssssssscssssscssssccsscscsscssccssscssc" />
    </g>
    <path
       style="color:#000000;font-style:normal;font-variant:normal;font-weight:normal;font-stretch:normal;font-size:medium;line-height:normal;font-family:sans-serif;text-indent:0;text-align:start;text-decoration:none;text-decoration-line:none;text-decoration-style:solid;text-decoration-color:#000000;letter-spacing:normal;word-spacing:normal;text-transform:none;direction:ltr;block-progression:tb;writing-mode:lr-tb;baseline-shift:baseline;text-anchor:start;white-space:normal;clip-rule:nonzero;display:inline;overflow:visible;visibility:visible;opacity:1;isolation:auto;mix-blend-mode:normal;color-interpolation:sRGB;color-interpolation-filters:linearRGB;solid-color:#000000;solid-opacity:1;fill:#3b5e8b;fill-opacity:1;fill-rule:evenodd;stroke:none;stroke-width:1.0629921;stroke-linecap:butt;stroke-linejoin:round;stroke-miterlimit:4;stroke-dasharray:none;stroke-dashoffset:0;stroke-opacity:1;marker:none;color-rendering:auto;image-rendering:auto;shape-rendering:auto;text-rendering:auto;enable-background:accumulate"
       d="m 53.710938,991.70508 c -8.181687,0.0663 -16.495481,0.32471 -24.419614,2.49409 -1.128069,0.30883 -2.739647,0.76081 -3.412066,1.75325 -0.671346,0.99085 -0.191665,1.69963 0.497223,1.94812 -0.449675,-0.67671 -0.313107,-1.21499 0.116281,-1.64449 0.836325,-0.83656 2.783486,-1.26051 3.673435,-1.49112 8.6754,-2.24803 17.895834,-2.59754 26.822884,-2.40183 7.47356,0.16384 15.212197,0.77195 22.445154,2.79627 0.730474,0.20444 2.265198,0.91589 2.518984,1.6744 0.318798,-0.19609 0.562376,-0.14717 0.325611,-0.80982 -0.526182,-0.60486 -1.452017,-1.17251 -2.3763,-1.41907 -7.002607,-1.868 -14.249501,-2.55115 -21.454691,-2.82616 -1.623649,-0.062 -3.292034,-0.0854 -4.736901,-0.0736 z"
       id="path4330"
       inkscape:connector-curvature="0"
       sodipodi:nodetypes="csscssssccsssc" />
  </g>
</svg>