<svg height="80px" width="80px" version="1.1" id="Layer_1" xmlns="http://www.w3.org/2000/svg" xmlns:xlink="http://www.w3.org/1999/xlink" 
	 viewBox="0 0 513.048 513.048" xml:space="preserve">
<g transform="translate(1)">
	<path style="fill:#1CD759;" d="M281.124,103.448c39.253-39.253,93.867-85.333,128-42.667c0,0-65.707-121.173-196.267,8.533
		c-87.893-48.64-128,76.8-128,76.8c98.133-76.8,136.533,0,136.533,0h81.067c18.773-17.067,58.027-34.133,123.733,17.067
		C426.191,163.181,383.524,23.235,281.124,103.448"/>
	<path style="fill:#FD9808;" d="M264.057,504.515L264.057,504.515c-93.013,0-166.4-77.653-162.133-170.667l2.56-68.267
		c3.413-67.413,58.027-119.467,125.44-119.467h68.267c66.56,0,122.027,52.053,124.587,119.467l3.413,68.267
		C430.457,426.861,357.071,504.515,264.057,504.515"/>
	<path style="fill:#FFDD09;" d="M251.257,504.515L251.257,504.515c-85.333,0-153.6-77.653-149.333-170.667l2.56-68.267
		c2.56-66.56,53.76-119.467,115.2-119.467h63.147c61.44,0,111.787,52.053,115.2,119.467l2.56,68.267
		C404.857,426.861,336.591,504.515,251.257,504.515"/>
	<path style="fill:#FFFFFF;" d="M105.337,265.581c2.56-67.413,58.027-119.467,124.587-119.467h15.36
		c-61.44,0-111.787,52.053-115.2,119.467l-2.56,68.267c-3.413,90.453,60.587,166.4,143.36,170.667c-2.56,0-4.267,0-6.827,0
		c-93.013,0-166.4-77.653-162.133-170.667L105.337,265.581z"/>
	<path d="M264.057,513.048c-46.933,0-91.307-18.773-123.733-52.907s-49.493-79.36-46.933-126.293l2.56-69.12
		c3.413-71.68,62.293-127.147,133.973-127.147h68.267c71.68,0,129.707,55.467,133.12,127.147l3.413,69.12
		c2.56,46.933-14.507,92.16-46.933,126.293S310.991,513.048,264.057,513.048z M229.924,154.648
		c-62.293,0-113.493,48.64-116.907,110.933l-2.56,69.12c-1.707,42.667,12.8,82.773,42.667,114.347
		c29.013,29.867,68.267,46.933,110.933,46.933s81.92-17.067,110.933-47.787s44.373-71.68,42.667-114.347l-2.56-68.267
		c-2.56-62.293-53.76-110.933-116.053-110.933H229.924z"/>
	<path d="M426.191,171.715c-1.707,0-3.413-0.853-5.12-1.707c-58.88-46.08-93.867-34.133-112.64-17.067
		c-1.707,0.853-3.413,1.707-5.973,1.707h-81.067c-3.413,0-5.973-1.707-7.68-5.12c0,0-11.947-22.187-37.547-28.16
		c-23.893-5.12-52.907,5.12-86.187,30.72c-2.56,2.56-6.827,2.56-10.24,0c-3.413-2.56-4.267-5.973-3.413-9.387
		c0.853-2.56,22.187-69.12,70.827-88.747c20.48-7.68,41.813-6.827,64,4.267c45.227-43.52,88.747-63.147,128.853-57.173
		c50.347,7.68,75.947,52.907,76.8,54.613c1.707,4.267,0.853,8.533-2.56,11.093c-3.413,2.56-8.533,1.707-11.093-1.707
		c-6.827-8.533-14.507-12.8-24.747-13.653c-14.507-0.853-30.72,7.68-46.08,17.92c10.24-0.853,19.627,0,29.867,2.56
		c50.347,15.36,71.68,84.48,72.533,87.04c0.853,3.413,0,7.68-3.413,9.387C429.604,170.861,427.897,171.715,426.191,171.715z
		 M346.831,120.515c16.213,0,35.84,5.12,59.733,18.773c-10.24-18.773-26.453-42.667-50.347-50.347
		c-20.48-6.827-44.373,0.853-69.973,20.48c-3.413,2.56-8.533,2.56-11.947-0.853c-3.413-3.413-2.56-8.533,0-11.947
		c29.867-28.16,66.56-60.587,100.693-61.44c-10.24-7.68-22.187-14.507-37.547-16.213c-35.84-5.12-75.093,13.653-118.613,56.32
		c-2.56,2.56-6.827,3.413-10.24,1.707c-19.627-11.093-38.4-12.8-54.613-5.973c-23.04,8.533-39.253,32.427-49.493,51.2
		c27.307-16.213,52.907-22.187,75.947-17.067c25.6,5.973,40.107,23.893,46.08,32.427h73.387
		C310.137,129.048,325.497,120.515,346.831,120.515z"/>
	<path d="M212.857,248.515c-6.827,0-13.653-3.413-17.92-8.533l-12.8-16.213c-4.267-5.12-5.12-11.947-1.707-17.067
		c2.56-5.973,8.533-9.387,14.507-9.387h34.987c5.973,0,11.947,3.413,14.507,9.387c2.56,5.973,1.707,11.947-1.707,17.067
		l-11.947,16.213C226.511,245.101,219.684,248.515,212.857,248.515L212.857,248.515z M195.791,214.381l12.8,15.36
		c1.707,1.707,3.413,1.707,4.267,1.707c0.853,0,2.56,0,4.267-1.707l11.947-15.36H195.791z M194.937,205.848v8.533l0,0V205.848z"/>
	<path d="M315.257,248.515c-6.827,0-13.653-3.413-17.92-8.533l-12.8-16.213c-4.267-5.12-5.12-11.947-1.707-17.067
		c2.56-5.973,8.533-9.387,14.507-9.387h34.987c5.973,0,11.947,3.413,14.507,9.387s1.707,11.947-1.707,17.067l-11.947,16.213
		C328.911,245.101,322.084,248.515,315.257,248.515L315.257,248.515z M298.191,214.381l12.8,15.36
		c1.707,1.707,3.413,1.707,4.267,1.707s2.56,0,4.267-1.707l11.947-15.36H298.191z M297.337,205.848v8.533l0,0V205.848z"/>
	<path d="M161.657,350.915c-6.827,0-13.653-3.413-17.92-8.533l-12.8-16.213c-4.267-5.12-5.12-11.947-1.707-17.067
		c3.413-5.12,8.533-9.387,14.507-9.387h34.987c5.973,0,11.947,3.413,14.507,9.387s1.707,11.947-1.707,17.067l-11.947,16.213
		C175.311,347.501,168.484,350.915,161.657,350.915L161.657,350.915z M144.591,316.781l12.8,15.36
		c1.707,1.707,3.413,1.707,4.267,1.707s2.56,0,4.267-1.707l11.947-15.36H144.591z M143.737,308.248v8.533l0,0V308.248z"/>
	<path d="M264.057,350.915c-6.827,0-13.653-3.413-17.92-8.533l-12.8-16.213c-4.267-5.12-5.12-11.947-1.707-17.067
		c2.56-5.973,8.533-9.387,14.507-9.387h34.987c5.973,0,11.947,3.413,14.507,9.387c2.56,5.973,1.707,11.947-1.707,17.067
		l-11.947,16.213C277.711,347.501,270.884,350.915,264.057,350.915L264.057,350.915z M246.991,316.781l12.8,15.36
		c1.707,1.707,3.413,1.707,4.267,1.707s2.56,0,4.267-1.707l11.947-15.36H246.991z M246.137,308.248v8.533l0,0V308.248z"/>
	<path d="M366.457,350.915c-6.827,0-13.653-3.413-17.92-8.533l-12.8-16.213c-4.267-5.12-5.12-11.947-1.707-17.067
		c2.56-5.973,8.533-9.387,14.507-9.387h34.987c5.973,0,11.947,3.413,14.507,9.387s1.707,11.947-1.707,17.067l-11.947,16.213
		C380.111,347.501,373.284,350.915,366.457,350.915L366.457,350.915z M349.391,316.781l12.8,15.36
		c1.707,1.707,3.413,1.707,4.267,1.707c0.853,0,2.56,0,4.267-1.707l11.947-15.36H349.391z M348.537,308.248v8.533l0,0V308.248z"/>
	<path d="M212.857,453.315c-6.827,0-13.653-3.413-17.92-8.533l-12.8-16.213c-4.267-5.12-5.12-11.947-1.707-17.067
		s8.533-9.387,14.507-9.387h34.987c5.973,0,11.947,3.413,14.507,9.387c2.56,5.973,1.707,11.947-1.707,17.067l-11.947,16.213
		C226.511,449.901,219.684,453.315,212.857,453.315L212.857,453.315z M195.791,419.181l12.8,15.36
		c1.707,1.707,3.413,1.707,4.267,1.707c0.853,0,2.56,0,4.267-1.707l11.947-15.36H195.791z M194.937,410.648v8.533l0,0V410.648z"/>
	<path d="M315.257,453.315c-6.827,0-13.653-3.413-17.92-8.533l-12.8-16.213c-4.267-5.12-5.12-11.947-1.707-17.067
		c2.56-5.973,8.533-9.387,14.507-9.387h34.987c5.973,0,11.947,3.413,14.507,9.387c2.56,5.973,1.707,11.947-1.707,17.067
		l-11.947,16.213C328.911,449.901,322.084,453.315,315.257,453.315L315.257,453.315z M298.191,419.181l12.8,15.36
		c1.707,1.707,3.413,1.707,4.267,1.707s2.56,0,4.267-1.707l11.947-15.36H298.191z M297.337,410.648v8.533l0,0V410.648z"/>
</g>
</svg>